# xmcd CD database file
#
# Track frame offsets:
#	150
#	11387
#	22641
#	35770
#	45710
#	63537
#	76168
#	87381
#	102548
#	132849
#	150216
#	167796
#	188468
#	203562
#	220913
#	232916
#	242595
#	257885
#	270575
#	291100
#
# Disc length: 4025 seconds
#
# Revision: 1
# Processed by: cddbd v1.5.2PL0 Copyright (c) Steve Scherf et al.
# Submitted via: CDex 1.40Release
#
DISCID=fe0fb714
DTITLE=ERIC  CLAPTON - BLUESBREAKING
DYEAR=1900
DGENRE=Blues
TTITLE0=BluesBreaking - 01 - Crawling Up A Hill
TTITLE1=BluesBreaking - 02 - Crocodile Walk
TTITLE2=BluesBreaking - 03 - Bye Bye Bird
TTITLE3=BluesBreaking - 04 - I´m Your Witchdoctor
TTITLE4=Telephone Blues
TTITLE5=BluesBreaking - 06 - On Top Of The World
TTITLE6=Intro-Maudie
TTITLE7=It Hurts to Be in Love
TTITLE8=BluesBreaking - 09 - Have You Ever Loved A Woman
TTITLE9=Bye Bye Bird
TTITLE10=(I'm Your) Hoochie Coochie Man
TTITLE11=BluesBreaking - 12 - Stormy Monday
TTITLE12=BluesBreaking - 13 - Lonely Years
TTITLE13=BluesBreaking - 14 - Bernard Jenkins
TTITLE14=BluesBreaking - 15 - On Top Of The World
TTITLE15=BluesBreaking - 16 - Key To Love
TTITLE16=BluesBreaking - 17 - Hideaway (Unreleased)
TTITLE17=BluesBreaking - 18 - Little Girl (Unreleased)
TTITLE18=BluesBreaking - 19 - Tears In My Eyes (Unreleased)
TTITLE19=BluesBreaking - 20 - Parchman Farm (Unreleased)
EXTD=ID3G: 0
EXTT0=
EXTT1=
EXTT2=
EXTT3=
EXTT4=
EXTT5=
EXTT6=
EXTT7=
EXTT8=
EXTT9=
EXTT10=
EXTT11=
EXTT12=
EXTT13=
EXTT14=
EXTT15=
EXTT16=
EXTT17=
EXTT18=
EXTT19=
PLAYORDER=
